<svg viewBox="0 0 25.54275235 7.77537273" xmlns="http://www.w3.org/2000/svg" xmlns:xlink="http://www.w3.org/1999/xlink"><clipPath id="a"><path d="m-5.14641976-1.096532h4.74641976v4.9988623h-4.74641976z"/></clipPath><clipPath id="b"><path d="m-5.14641976-1.096532h4.74641976v4.9988623h-4.74641976z"/></clipPath><g transform="matrix(.73687062 0 0 .73687062 8.175734 2.853931)"><path d="m-7.92293-12.756732h28.319263v28.319263h-28.319263z" fill="#fff"/><g clip-path="url(#a)"><g clip-path="url(#b)"><path d="m-4.26037141-.29358974-.27743686.29118373c.004374.33492377.00687343.52675511.01062258.86167888l2.23761574 2.23136716.27743686-.29118372c-.00437401-.33492378-.00687344-.52675512-.01062258-.86167889z" fill="#0094ff"/></g><g clip-path="url(#b)"><path d="m-4.8689829.51810052-.27743686.29118373c.00437401.33492378.00687344.52675512.01062259.86167889l2.23761573 2.23136716.27743686-.29118373c-.004374-.33492377-.00687343-.52675511-.01062258-.86167889z" fill="#80caff"/></g><g clip-path="url(#b)"><path d="m-.4.97924557c-.00687344-.34242207-.01062258-.53300369-.01687116-.87542576l-.28743458-.27431257-.9785273 1.02789106-1.96017888-1.9539303-.27743686.29118373c.00437401.33492377.00687344.52675511.01062259.86167889l2.23761573 2.23136716z" fill="#006fbf"/></g></g><path d="m1.434657.0212685-.4698405 1.3631175h-.4853085l-.471774-1.3631175h.406035l.30936.9841515.3074265-.9841515zm.49499394.3035595v.2223525h.4350375v.2880915h-.4350375v.2455545h.4930425v.3035595h-.8720085v-1.3631175h.8720085v.3035595zm1.36886702 1.059558-.27069-.50271h-.0406035v.50271h-.378966v-1.3631175h.5974515q.1643475 0 .278424.05703825.1140765.05703825.1720815.1566135.058005.09957525.058005.22331925 0 .139212-.07637325.24458775-.07637325.10537575-.22331925.14984625l.3074265.5317125zm-.3112935-.761799h.1875495q.07734 0 .11601-.0367365.03867-.0367365.03867-.1063425 0-.065739-.03963675-.10344225-.03963675-.03770325-.11504325-.03770325h-.1875495zm1.70343427.761799-.4273035-.5974515v.5974515h-.378966v-1.3631175h.378966v.587784l.4234365-.587784h.436971l-.5007765.661257.525912.7018605zm.97450949-1.059558v.2223525h.4350375v.2880915h-.4350375v.2455545h.4930425v.3035595h-.8720085v-1.3631175h.8720085v.3035595zm1.89864602-.3035595v1.3631175h-.378966v-.5471805h-.4621065v.5471805h-.378966v-1.3631175h.378966v.5123775h.4621065v-.5123775zm.90484118 1.3631175-.27069-.50271h-.0406035v.50271h-.378966v-1.3631175h.5974515q.1643475 0 .278424.05703825.1140765.05703825.1720815.1566135.058005.09957525.058005.22331925 0 .139212-.07637325.24458775-.07637325.10537575-.22331925.14984625l.3074265.5317125zm-.3112935-.761799h.1875495q.07734 0 .11601-.0367365.03867-.0367365.03867-.1063425 0-.065739-.03963675-.10344225-.03963675-.03770325-.11504325-.03770325h-.1875495zm1.02090877.66222375q-.1527465-.11310975-.1643475-.32386125h.4041015q.0058005.0715395.042537.104409.0367365.0328695.0947415.0328695.0522045 0 .08604075-.02610225.03383625-.02610225.03383625-.07250625 0-.0599385-.0560715-.092808-.0560715-.0328695-.181749-.073473-.1334115-.0444705-.21558525-.08604075-.08217375-.04157025-.143079-.1218105-.06090525-.08024025-.06090525-.20978475 0-.131478.065739-.22525275.065739-.09377475.181749-.14211225.11601-.0483375.262956-.0483375.2378205 0 .37993275.11117625.14211225.11117625.15177975.31226025h-.4118355q-.0019335-.061872-.03770325-.092808-.03576975-.030936-.09184125-.030936-.042537 0-.069606.0251355-.027069.0251355-.027069.0715395 0 .03867.02996925.06670575.02996925.02803575.07443975.0483375.0444705.02030175.131478.05123775.1295445.0444705.21365175.08797425.08410725.04350375.1450125.1218105.06090525.07830675.06090525.19818375 0 .1218105-.06090525.2184855-.06090525.096675-.1759485.1527465-.11504325.0560715-.27165675.0560715-.2378205 0-.390567-.11310975m1.19682706 0q-.1527465-.11310975-.1643475-.32386125h.4041015q.0058005.0715395.042537.104409.0367365.0328695.0947415.0328695.0522045 0 .08604075-.02610225.03383625-.02610225.03383625-.07250625 0-.0599385-.0560715-.092808-.0560715-.0328695-.181749-.073473-.1334115-.0444705-.21558525-.08604075-.08217375-.04157025-.143079-.1218105-.06090525-.08024025-.06090525-.20978475 0-.131478.065739-.22525275.065739-.09377475.181749-.14211225.11601-.0483375.262956-.0483375.2378205 0 .37993275.11117625.14211225.11117625.15177975.31226025h-.4118355q-.0019335-.061872-.03770325-.092808-.03576975-.030936-.09184125-.030936-.042537 0-.069606.0251355-.027069.0251355-.027069.0715395 0 .03867.02996925.06670575.02996925.02803575.07443975.0483375.0444705.02030175.131478.05123775.1295445.0444705.21365175.08797425.08410725.04350375.1450125.1218105.06090525.07830675.06090525.19818375 0 .1218105-.06090525.2184855-.06090525.096675-.1759485.1527465-.11504325.0560715-.27165675.0560715-.2378205 0-.390567-.11310975m1.1107863-.943548q.08410725-.15758025.23878725-.2455545.15468-.08797425.355764-.08797425.255222 0 .429237.13631175.174015.13631175.224286.37026525h-.4079685q-.0367365-.07734-.10150875-.1179435-.06477225-.0406035-.14984625-.0406035-.131478 0-.20978475.09377475-.07830675.09377475-.07830675.25038825 0 .158547.07830675.25232175.07830675.09377475.20978475.09377475.085074 0 .14984625-.0406035.06477225-.0406035.10150875-.1179435h.4079685q-.050271.2339535-.224286.37026525-.174015.13631175-.429237.13631175-.201084 0-.355764-.08797425-.15468-.08797425-.23878725-.2455545-.08410725-.15758025-.08410725-.36059775 0-.201084.08410725-.35866425m2.64598626-.31999425v1.3631175h-.378966v-.5471805h-.4621065v.5471805h-.378966v-1.3631175h.378966v.5123775h.4621065v-.5123775zm.58581368 0v.7908015q0 .1102095.05123775.170148.05123775.0599385.15564675.0599385.104409 0 .15758025-.06090525.05317125-.06090525.05317125-.16918125v-.7908015h.378966v.7908015q0 .1875495-.0792735.31999425-.0792735.13244475-.21558525.1991505-.13631175.06670575-.30259275.06670575-.166281 0-.29679225-.06670575-.13051125-.06670575-.204951-.19818375-.07443975-.131478-.07443975-.320961v-.7908015zm1.38240435 1.0730925h.4234365v.290025h-.8024025v-1.3631175h.378966zm.94746881-.769533v.2223525h.4350375v.2880915h-.4350375v.2455545h.4930425v.3035595h-.8720085v-1.3631175h.8720085v.3035595z" fill="#000002"/><path d="m1.16402025 1.8523068v.9534915h-.23226075v-.57182325l-.21324525.57182325h-.1874385l-.2146035-.5731815v.5731815h-.23226075v-.9534915h.2743665l.26757525.6601095.26485875-.6601095zm.39936596 0v.9534915h-.23226075v-.9534915zm.85431603 0v.18608025h-.2526345v.76741125h-.23226075v-.76741125h-.2526345v-.18608025zm.8027304 0v.18608025h-.2526345v.76741125h-.23226075v-.76741125h-.2526345v-.18608025zm.34907489.18608025v.1928715h.31103925v.179289h-.31103925v.2091705h.35178675v.18608025h-.5840475v-.9534915h.5840475v.18608025zm.73483447.58812225h.304248v.179289h-.53650875v-.9534915h.23226075zm.64787132 0h.304248v.179289h-.53650875v-.9534915h.23226075zm1.00916583.010866h-.3558615l-.0570465.168423h-.24312675l.3449955-.9534915h.2689335l.3449955.9534915h-.24584325zm-.059763-.179289-.11816775-.34907025-.1168095.34907025zm1.32021833.347712h-.23226075l-.3884595-.58812225v.58812225h-.23226075v-.9534915h.23226075l.3884595.59083875v-.59083875h.23226075zm.78916249-.8937285q.11273475.059763.17453512.16774388.06180038.10798087.06180038.24923887 0 .13989975-.06180038.24855975-.06180037.10866-.17521425.168423-.11341387.059763-.26282137.059763h-.35721975v-.9534915h.35721975q.15076575 0 .2635005.059763m-.0733455.62072025q.0733455-.07198725.0733455-.2037375 0-.13175025-.0733455-.20509575-.0733455-.0733455-.20509575-.0733455h-.11001825v.554166h.11001825q.13175025 0 .20509575-.07198725" fill="#160b0c"/></g></svg>